<svg width="28" height="20" viewBox="0 0 28 20" xmlns="http://www.w3.org/2000/svg">
    <defs>
        <rect id="border" width="28" height="20" rx="3"/>
        <mask id="mask">
            <use href="#border" fill="#fff"/>
        </mask>
        <g id="star">
            <polygon points="0,-1 0.224,-0.309 0.951,-0.309 0.363,0.118 0.588,0.809 0,0.382 -0.588,0.809 -0.363,0.118 -0.951,-0.309 -0.224,-0.309" fill="#ffcc00"/>
        </g>
    </defs>
    <g mask="url(#mask)">
        <!-- modré pozadí -->
        <use href="#border" fill="#003399"/>
        <!-- 12 hvězd v kruhu -->
        <g transform="translate(14,10) scale(1.6)">
            <use href="#star" transform="rotate(0) translate(0,-5)"/>
            <use href="#star" transform="rotate(30) translate(0,-5)"/>
            <use href="#star" transform="rotate(60) translate(0,-5)"/>
            <use href="#star" transform="rotate(90) translate(0,-5)"/>
            <use href="#star" transform="rotate(120) translate(0,-5)"/>
            <use href="#star" transform="rotate(150) translate(0,-5)"/>
            <use href="#star" transform="rotate(180) translate(0,-5)"/>
            <use href="#star" transform="rotate(210) translate(0,-5)"/>
            <use href="#star" transform="rotate(240) translate(0,-5)"/>
            <use href="#star" transform="rotate(270) translate(0,-5)"/>
            <use href="#star" transform="rotate(300) translate(0,-5)"/>
            <use href="#star" transform="rotate(330) translate(0,-5)"/>
        </g>
    </g>
</svg>