<svg version="1.1" id="Layer_1" xmlns="http://www.w3.org/2000/svg" xmlns:xlink="http://www.w3.org/1999/xlink" x="0px" y="0px"
	 width="100%" viewBox="0 0 224 256" enable-background="new 0 0 224 256" xml:space="preserve">
<path fill="#000000" opacity="1.000000" stroke="none" 
	d="
M69.298859,201.215118 
	C68.598175,205.044098 67.636551,208.446136 67.414818,211.895721 
	C67.187599,215.430664 65.562897,216.329727 62.328243,216.349716 
	C50.461212,216.423035 44.691628,210.787949 45.717598,198.668625 
	C47.398327,178.814941 53.925014,161.350891 71.971413,150.229355 
	C78.278625,146.342377 85.220970,144.074387 92.239975,141.976547 
	C94.657379,141.254028 96.633110,142.117004 98.743057,143.471680 
	C113.812866,153.147247 128.929871,153.800598 143.880402,143.171143 
	C146.314987,141.440201 148.834244,141.395721 151.479980,142.107101 
	C185.180008,151.168198 197.262604,175.003540 196.202133,205.272446 
	C195.921524,213.281738 184.398209,219.487656 177.475754,215.949295 
	C175.608276,214.994736 175.868332,213.237762 175.652634,211.629105 
	C173.512909,195.670792 167.056641,181.882950 154.326248,171.720917 
	C125.045616,148.347687 82.054390,161.613998 70.345787,197.463181 
	C69.985054,198.567673 69.688980,199.693283 69.298859,201.215118 
z"/>
<path fill="#000000" opacity="1.000000" stroke="none" 
	d="
M164.290695,214.156647 
	C163.774246,216.660645 162.030609,216.259460 160.627045,216.260880 
	C134.298431,216.287354 107.969772,216.279083 81.641136,216.262756 
	C80.658653,216.262146 79.620369,216.302322 78.849823,215.478638 
	C76.829010,194.987411 95.066116,173.252060 115.560738,171.723343 
	C142.327423,169.726822 163.350021,187.848663 164.290695,214.156647 
z"/>
<path fill="#000000" opacity="1.000000" stroke="none" 
	d="
M86.585297,108.094543 
	C85.391922,102.619408 85.084557,97.481598 84.964912,92.325127 
	C84.887970,89.008919 86.396660,87.606400 89.821274,87.620857 
	C110.802727,87.709427 131.784729,87.669960 152.766556,87.662239 
	C155.147354,87.661362 157.188385,88.118896 157.271088,91.056305 
	C157.706924,106.532761 154.352707,120.782082 141.541855,130.733002 
	C122.256973,145.712677 94.856476,136.400330 87.753616,112.859489 
	C87.322418,111.430344 87.012299,109.964661 86.585297,108.094543 
z"/>
<path fill="#000000" opacity="1.000000" stroke="none" 
	d="
M111.782417,38.289867 
	C129.165985,35.635620 144.101456,40.772350 157.630737,50.583504 
	C163.236023,54.648346 164.302704,69.082642 159.856293,74.286957 
	C158.686783,75.655807 157.179459,75.410820 155.712799,75.411125 
	C132.569122,75.415955 109.425224,75.357521 86.281982,75.455536 
	C82.805519,75.470261 81.023895,74.192322 80.500374,70.787788 
	C80.072212,68.003387 79.268036,65.275803 78.860870,62.489380 
	C78.151054,57.631859 79.778351,53.704819 83.777008,50.716095 
	C92.052757,44.530525 101.324760,40.632122 111.782417,38.289867 
z"/>
</svg>